{
	"asset":{
		"version":"2.0",
		"generator":""
	},
	"scenes":[{
		"nodes":[0]
	}],
	"meshes":[{
		"name":"Extrude.2",
		"primitives":[{
			"attributes":{
				"POSITION":1,
				"NORMAL":2,
				"TEXCOORD_0":3
			},
			"indices":0,
			"material":0
		}]
	}],
	"nodes":[{
		"name":"Extrude.2",
		"mesh":0,
		"translation":[0.0,
		0.0,
		0.0],
		"rotation":[0.17507131397724152,
		0.0,
		0.0,
		-0.9845557808876038],
		"scale":[1.0,
		1.0,
		1.0]
	}],
	"accessors":[{
		"bufferView":0,
		"type":"SCALAR",
		"componentType":5123,
		"count":135336,
		"byteOffset":0,
		"min":[0],
		"max":[37585]
	},
	{
		"bufferView":1,
		"type":"VEC3",
		"componentType":5126,
		"count":37586,
		"byteOffset":0,
		"min":[-0.14583264291286469,
		-0.002869444666430354,
		-0.0010142133105546237],
		"max":[0.1565132439136505,
		0.15205694735050202,
		0.060593876987695697]
	},
	{
		"bufferView":1,
		"type":"VEC3",
		"componentType":5126,
		"count":37586,
		"byteOffset":12,
		"min":[-0.9999995231628418,
		-0.9385979771614075,
		-0.9954807162284851],
		"max":[0.9999996423721314,
		0.9385977387428284,
		0.9857355356216431]
	},
	{
		"bufferView":1,
		"type":"VEC2",
		"componentType":5126,
		"count":37586,
		"byteOffset":24,
		"min":[0.17843550443649293,
		0.01890261098742485],
		"max":[1.1684095859527588,
		0.9240595102310181]
	}],
	"bufferViews":[{
		"buffer":0,
		"byteOffset":0,
		"byteLength":270672,
		"target":34963
	},
	{
		"buffer":0,
		"byteOffset":270672,
		"byteLength":1202752,
		"target":34962,
		"byteStride":32
	}],
	"buffers":[{
		"uri":"data:application/octet-stream;base64,",
		"byteLength":1473424
	}],
	"materials":[{
		"pbrMetallicRoughness":{
			"baseColorFactor":[1.0,
			1.0,
			1.0,
			1.0],
			"metallicFactor":1.0,
			"roughnessFactor":1.0
		},
		"emissiveFactor":[0.0,
		0.0,
		0.0],
		"alphaMode":"OPAQUE",
		"doubleSided":true,
		"name":"Wall"
	}]
}